<?xml version="1.0" standalone="no"?>
<!DOCTYPE svg PUBLIC "-//W3C//DTD SVG 20010904//EN"
 "http://www.w3.org/TR/2001/REC-SVG-20010904/DTD/svg10.dtd">
<svg version="1.0" xmlns="http://www.w3.org/2000/svg"
 width="1373.000000pt" height="458.000000pt" viewBox="0 0 1373.000000 458.000000"
 preserveAspectRatio="xMidYMid meet">

<g transform="translate(0.000000,458.000000) scale(0.100000,-0.100000)"
fill="#000000" stroke="none">
<path d="M1570 4574 c0 -3 23 -98 50 -211 28 -113 50 -211 50 -218 0 -7 -37
-44 -82 -81 -46 -37 -122 -105 -170 -151 l-86 -83 -599 0 -598 0 -39 -23 c-25
-14 -48 -39 -63 -66 l-23 -44 0 -1778 c0 -1235 3 -1786 11 -1806 15 -40 48
-73 94 -94 38 -18 111 -19 1850 -19 1746 0 1811 1 1851 19 23 10 54 36 70 57
l29 37 3 1792 2 1792 -23 44 c-15 27 -38 52 -63 66 l-39 23 -634 0 -633 0
-112 108 c-192 185 -369 333 -521 434 -145 95 -325 208 -325 202z m457 -483
c138 -110 387 -353 515 -501 168 -196 312 -409 420 -621 32 -65 53 -97 58 -88
4 8 15 43 25 79 10 36 21 69 25 73 8 9 70 -178 105 -317 66 -260 93 -541 75
-774 -9 -123 -41 -319 -66 -409 -8 -28 -6 -28 81 -3 38 11 73 20 77 20 19 0
-131 -243 -239 -388 -199 -265 -440 -461 -691 -562 -179 -72 -251 -85 -467
-84 -163 0 -201 3 -268 22 -255 71 -525 237 -687 424 -227 262 -372 612 -436
1052 -18 127 -31 445 -17 431 6 -5 42 -57 81 -115 82 -121 177 -240 193 -240
7 0 6 8 -3 23 -8 12 -39 66 -68 121 l-53 98 22 107 c107 508 400 997 840 1398
69 62 126 112 127 110 1 -1 -20 -92 -47 -201 -26 -110 -47 -201 -46 -203 2 -1
25 37 52 85 26 48 71 127 98 176 l50 89 63 -69 c35 -38 63 -63 64 -56 0 6 -25
114 -55 238 -30 125 -55 233 -55 241 0 17 76 -34 227 -156z m-894 -473 c-5 -7
-31 -40 -57 -73 -183 -228 -379 -596 -453 -852 -10 -35 -20 -63 -23 -63 -3 1
-52 71 -110 156 -100 149 -105 155 -108 123 -2 -19 -2 -200 1 -404 3 -272 9
-402 21 -490 87 -616 314 -1059 692 -1353 74 -57 271 -169 363 -206 191 -76
339 -101 550 -93 151 6 227 20 385 72 358 117 699 414 966 839 59 93 270 488
270 504 0 5 -54 -6 -121 -25 -66 -19 -123 -32 -126 -30 -3 3 0 53 7 110 16
134 8 506 -14 640 -40 250 -100 457 -232 804 -41 109 -77 205 -80 213 -8 22
-16 3 -54 -127 l-33 -112 -67 98 c-37 54 -97 138 -133 185 -37 47 -67 88 -67
91 0 3 216 5 480 5 462 0 481 -1 499 -19 11 -11 23 -35 26 -53 3 -18 4 -775 3
-1681 l-3 -1649 -28 -24 -28 -24 -1710 0 -1710 0 -24 25 -25 24 0 1681 c0
1667 0 1680 20 1700 19 19 33 20 476 20 364 0 455 -3 447 -12z"/>
<path d="M1900 3454 c0 -40 -28 -157 -60 -248 -32 -95 -12 -87 72 26 28 37 55
68 60 68 5 0 45 -36 89 -80 43 -44 79 -76 79 -71 0 57 -192 341 -231 341 -5 0
-9 -16 -9 -36z"/>
<path d="M1294 2998 c-81 -84 -147 -203 -195 -350 -40 -123 -36 -137 12 -48
47 86 94 152 137 193 l29 28 13 -31 c19 -45 105 -152 96 -120 -9 34 -34 208
-43 298 l-8 73 -41 -43z"/>
<path d="M2596 3025 c-3 -9 -6 -38 -6 -63 0 -46 -21 -203 -36 -271 -10 -47 4
-36 61 49 32 45 52 67 61 62 26 -15 105 -121 149 -202 35 -65 44 -77 39 -50
-30 154 -146 384 -237 468 -21 20 -25 21 -31 7z"/>
<path d="M1967 2749 c-33 -57 -73 -177 -86 -259 -18 -117 -25 -260 -12 -260 6
0 11 9 11 21 0 39 32 143 67 221 20 43 38 78 41 78 3 0 28 -22 56 -48 49 -46
103 -84 94 -65 -50 104 -77 166 -108 252 l-37 104 -26 -44z"/>
<path d="M1320 2016 c-139 -30 -263 -161 -299 -317 -15 -66 -13 -207 4 -273
38 -144 146 -281 272 -342 53 -26 68 -29 163 -29 91 0 112 3 155 25 99 48 181
147 216 261 23 75 25 229 4 309 -50 188 -200 338 -370 369 -69 13 -74 13 -145
-3z m291 -505 c24 -25 29 -38 29 -79 0 -41 -5 -55 -29 -81 -25 -27 -36 -31
-79 -31 -60 0 -97 25 -111 75 -22 81 27 145 111 145 41 0 54 -5 79 -29z"/>
<path d="M2500 2020 c-168 -36 -325 -206 -366 -399 -47 -226 46 -451 224 -538
51 -25 67 -28 162 -28 103 0 106 1 178 39 175 94 282 294 269 506 -7 109 -27
174 -80 252 -89 133 -240 198 -387 168z m11 -490 c42 -23 62 -105 38 -153 -20
-39 -51 -57 -100 -57 -58 0 -94 26 -110 80 -14 47 0 90 39 120 27 22 100 27
133 10z"/>
<path d="M5035 3109 c-77 -11 -174 -59 -216 -106 -43 -49 -75 -124 -89 -203
-7 -45 -10 -335 -8 -940 l3 -875 23 -57 c48 -120 152 -198 289 -218 38 -5 304
-10 601 -10 l532 0 0 210 0 210 -500 0 c-344 0 -507 3 -523 11 -14 6 -30 22
-36 36 -14 31 -16 1439 -1 1477 21 56 25 56 560 56 l490 0 0 210 0 210 -532
-1 c-293 -1 -560 -5 -593 -10z"/>
<path d="M6716 3109 c-169 -25 -279 -141 -306 -324 -13 -96 -13 -1679 1 -1765
28 -179 129 -280 309 -309 85 -14 963 -14 1050 -1 36 6 93 24 127 40 111 55
165 142 183 300 8 65 10 358 8 920 -4 885 -3 863 -56 965 -27 53 -101 121
-159 146 -25 11 -76 24 -112 29 -81 12 -963 11 -1045 -1z m943 -423 c15 -8 32
-26 39 -41 9 -19 12 -209 12 -746 l0 -721 -29 -29 -29 -29 -406 0 -405 0 -28
24 -28 24 -3 722 c-3 792 -4 777 56 799 16 5 188 10 410 10 313 1 388 -2 411
-13z"/>
<path d="M8707 3109 c-167 -24 -275 -129 -307 -294 -8 -43 -10 -314 -8 -951
l3 -890 38 -76 c56 -114 134 -168 273 -188 39 -5 302 -10 602 -10 l532 0 0
210 0 209 -516 3 -516 3 -19 24 c-18 22 -19 49 -19 757 l0 733 24 28 24 28
506 3 506 3 0 209 0 210 -532 -1 c-293 -1 -559 -5 -591 -10z"/>
<path d="M10386 3109 c-163 -24 -267 -122 -301 -286 -22 -104 -22 -1749 1
-1843 18 -79 50 -135 104 -184 52 -47 108 -71 198 -85 90 -14 950 -14 1046 -1
139 20 217 74 273 188 l38 76 3 890 c2 626 0 908 -8 949 -33 171 -134 268
-310 296 -78 13 -957 13 -1044 0z m961 -442 l28 -27 0 -736 0 -736 -28 -24
-28 -24 -405 0 -406 0 -29 29 -29 29 0 724 c1 581 3 728 14 747 28 50 32 51
458 48 l398 -2 27 -28z"/>
<path d="M12358 3109 c-166 -24 -267 -133 -298 -321 -13 -82 -13 -664 0 -747
26 -157 126 -262 279 -291 31 -6 236 -10 487 -10 251 0 443 -4 458 -10 55 -20
61 -46 64 -269 4 -240 -1 -285 -33 -317 l-24 -24 -621 0 -620 0 0 -210 0 -211
683 3 c615 3 687 5 734 21 112 38 196 123 231 236 15 49 17 104 17 456 0 393
0 401 -23 456 -46 116 -141 188 -272 209 -37 5 -247 10 -487 10 -255 0 -432 4
-448 10 -50 19 -56 57 -53 317 l3 235 28 24 28 24 590 0 589 0 0 210 0 210
-627 -1 c-346 -1 -654 -5 -685 -10z"/>
</g>
</svg>
