<?xml version="1.0" standalone="no"?>
<!DOCTYPE svg PUBLIC "-//W3C//DTD SVG 20010904//EN"
 "http://www.w3.org/TR/2001/REC-SVG-20010904/DTD/svg10.dtd">
<svg version="1.0" xmlns="http://www.w3.org/2000/svg"
 width="960.000000pt" height="960.000000pt" viewBox="0 0 960.000000 960.000000"
 preserveAspectRatio="xMidYMid meet">

<g transform="translate(0.000000,960.000000) scale(0.100000,-0.100000)"
fill="#000000" stroke="none">
<path d="M2150 9590 c-401 -20 -717 -97 -1013 -247 -186 -95 -324 -192 -471
-333 -352 -336 -549 -736 -626 -1265 -34 -238 -39 -632 -39 -2950 0 -1947 7
-2787 23 -2813 3 -6 71 38 150 98 316 235 636 407 1016 546 116 42 145 56 144
71 0 10 -10 63 -22 118 -68 324 -77 545 -77 1970 0 1220 6 1478 40 1761 53
438 195 798 425 1079 70 85 233 244 315 306 309 236 704 371 1195 408 323 25
883 33 1847 28 1193 -7 1426 -18 1734 -83 690 -145 1209 -594 1423 -1229 142
-421 161 -729 153 -2475 -6 -1271 -14 -1453 -79 -1765 -56 -272 -190 -581
-336 -775 -99 -131 -266 -298 -397 -396 -112 -84 -350 -208 -484 -252 -47 -16
-86 -33 -88 -38 -4 -11 44 -86 76 -120 11 -12 17 -25 14 -28 -4 -3 -1 -6 6 -6
7 0 9 -5 5 -12 -4 -7 -3 -8 4 -4 8 4 16 -3 23 -20 5 -15 32 -57 58 -93 47 -65
78 -115 47 -77 -33 41 -14 2 35 -70 27 -41 56 -92 63 -112 8 -21 27 -65 44
-98 16 -32 37 -82 45 -110 8 -28 24 -69 36 -91 11 -23 34 -90 50 -150 16 -59
42 -159 59 -220 30 -112 30 -113 10 -113 -12 0 -19 -2 -16 -5 2 -3 65 2 139
11 520 59 921 237 1257 558 338 324 544 732 623 1234 33 212 41 943 36 3447
-5 2460 -2 2346 -63 2645 -48 233 -146 485 -270 688 -189 311 -489 582 -829
747 -336 164 -617 219 -1195 235 -404 11 -4868 11 -5090 0z"/>
<path d="M3480 7710 c-632 -28 -942 -135 -1213 -419 -182 -190 -295 -443 -341
-761 -37 -250 -41 -427 -41 -1695 0 -1270 5 -1500 41 -1745 14 -97 50 -259 60
-269 2 -2 13 4 24 14 11 10 36 20 57 22 21 2 46 12 57 21 11 9 16 11 12 5 -10
-17 6 -16 30 2 10 8 29 15 40 15 12 0 27 6 33 14 7 8 27 14 45 14 18 0 47 7
64 16 17 9 42 16 57 16 14 0 25 3 25 8 0 4 10 7 23 8 12 0 31 4 41 9 15 7 18
5 11 -6 -6 -11 -5 -12 6 -1 7 6 24 12 36 12 13 0 37 7 53 15 16 8 50 17 77 19
49 5 111 17 148 31 17 6 18 5 5 -5 -12 -10 -10 -10 10 -5 14 4 43 10 65 15 22
5 51 12 64 16 15 4 22 3 18 -3 -4 -7 11 -7 46 0 29 5 81 11 117 12 36 1 142 6
235 10 94 4 179 7 190 7 148 -7 210 -13 217 -20 5 -5 30 -5 56 -2 29 5 49 4
53 -2 4 -6 22 -8 40 -6 19 3 45 1 59 -4 14 -6 77 -17 140 -24 63 -8 133 -17
155 -20 24 -3 -2 9 -65 31 -677 232 -1148 800 -1246 1502 -20 146 -15 421 11
563 115 635 560 1171 1158 1394 244 91 429 121 707 113 155 -4 219 -11 311
-31 646 -138 1164 -597 1368 -1212 214 -642 64 -1334 -398 -1836 -248 -270
-625 -478 -990 -548 -181 -35 -448 -41 -631 -16 -38 6 -41 5 -20 -5 14 -6 48
-15 75 -19 89 -15 149 -30 154 -38 4 -4 26 -14 51 -21 25 -7 72 -21 105 -31
33 -10 72 -21 88 -24 15 -4 27 -10 27 -15 0 -5 22 -12 49 -16 28 -4 55 -13 62
-21 6 -8 20 -14 30 -14 11 0 19 -4 19 -9 0 -5 10 -7 23 -4 18 4 19 3 7 -7 -12
-10 -11 -11 8 -7 12 3 22 2 22 -1 0 -9 94 -52 113 -52 8 0 25 -8 38 -19 13
-10 39 -22 56 -25 18 -4 36 -13 40 -20 5 -7 25 -19 46 -25 20 -7 35 -16 32
-21 -3 -5 8 -11 25 -15 16 -4 30 -11 30 -16 0 -10 69 -44 82 -41 5 1 7 -2 5
-7 -2 -10 54 -44 138 -85 28 -14 63 -37 80 -53 16 -15 34 -28 40 -28 10 0 38
-18 105 -70 22 -16 60 -46 86 -65 26 -19 79 -62 118 -96 40 -34 82 -66 94 -73
12 -6 22 -17 22 -24 0 -7 14 -21 30 -31 17 -9 28 -22 24 -27 -3 -5 -1 -8 5 -7
5 2 16 -5 23 -15 13 -17 18 -17 128 2 306 53 525 154 708 326 182 171 293 369
357 638 67 282 79 556 79 1897 0 1094 -8 1438 -40 1680 -36 280 -112 497 -236
677 -58 84 -218 242 -303 300 -209 141 -464 214 -860 244 -171 13 -2536 20
-2805 9z m3362 -599 c74 -25 124 -58 181 -120 160 -171 150 -430 -22 -595 -71
-67 -147 -104 -233 -114 -196 -23 -368 72 -452 248 -29 60 -31 73 -31 175 0
103 2 114 32 178 52 110 151 196 268 233 62 20 193 17 257 -5z m-2759 -4048
c-7 -2 -21 -2 -30 0 -10 3 -4 5 12 5 17 0 24 -2 18 -5z"/>
<path d="M4700 5984 c-14 -2 -59 -9 -100 -15 -146 -22 -338 -99 -474 -192 -33
-22 -95 -74 -139 -116 -378 -359 -480 -925 -249 -1386 145 -291 411 -515 722
-609 120 -36 207 -48 350 -48 379 1 721 174 948 480 247 334 300 785 137 1166
-154 358 -463 612 -847 697 -84 18 -295 33 -348 23z"/>
<path d="M4395 3000 c11 -5 34 -8 50 -8 l30 0 -30 8 c-16 4 -39 8 -50 8 l-20
1 20 -9z"/>
</g>
</svg>
